<svg width="71" height="74" viewBox="0 0 71 74" fill="none" xmlns="http://www.w3.org/2000/svg">
<g id="about">
<path id="Vector" d="M37.541 33.75H35.041V31.25H37.541M37.541 43.75H35.041V36.25H37.541M36.291 25C34.6495 25 33.024 25.3233 31.5075 25.9515C29.9909 26.5797 28.6129 27.5004 27.4522 28.6612C25.108 31.0054 23.791 34.1848 23.791 37.5C23.791 40.8152 25.108 43.9946 27.4522 46.3388C28.6129 47.4996 29.9909 48.4203 31.5075 49.0485C33.024 49.6767 34.6495 50 36.291 50C39.6062 50 42.7856 48.683 45.1299 46.3388C47.4741 43.9946 48.791 40.8152 48.791 37.5C48.791 35.8585 48.4677 34.233 47.8395 32.7165C47.2113 31.1999 46.2906 29.8219 45.1299 28.6612C43.9691 27.5004 42.5911 26.5797 41.0746 25.9515C39.558 25.3233 37.9325 25 36.291 25Z" fill="#F8F8F8" fill-opacity="0.9"/>
</g>
</svg>
