<svg width="88" height="88" viewBox="0 0 88 88" fill="none" xmlns="http://www.w3.org/2000/svg">
<g id="achievements">
<path id="Vector" d="M51.791 31.5C50.666 31.5 49.291 32.75 49.291 34H39.291C39.291 32.75 37.916 31.5 36.791 31.5H31.791V42.75C31.791 44 33.041 45.25 34.291 45.25H37.041C37.541 47.75 39.166 49.875 43.041 50.25V52.85C39.291 53.425 39.291 56.5 39.291 56.5H49.291C49.291 56.5 49.291 53.425 45.541 52.85V50.25C49.416 49.875 51.041 47.75 51.541 45.25H54.291C55.541 45.25 56.791 44 56.791 42.75V31.5H51.791ZM36.791 42.75H34.291V34H36.791V42.75ZM54.291 42.75H51.791V34H54.291V42.75Z" fill="#F8F8F8" fill-opacity="0.9"/>
</g>
</svg>
