<svg width="82" height="78" viewBox="0 0 82 78" fill="none" xmlns="http://www.w3.org/2000/svg">
<g id="alumni">
<path id="Vector" d="M41.291 26C39.6334 26 38.0437 26.5268 36.8716 27.4645C35.6995 28.4021 35.041 29.6739 35.041 31C35.041 32.3261 35.6995 33.5979 36.8716 34.5355C38.0437 35.4732 39.6334 36 41.291 36C42.9486 36 44.5383 35.4732 45.7104 34.5355C46.8825 33.5979 47.541 32.3261 47.541 31C47.541 29.6739 46.8825 28.4021 45.7104 27.4645C44.5383 26.5268 42.9486 26 41.291 26ZM49.1035 38.5H33.4785C32.2353 38.5 31.043 38.8951 30.164 39.5983C29.2849 40.3016 28.791 41.2554 28.791 42.25C28.791 45.04 30.2254 47.275 32.5785 48.7875C34.8941 50.275 38.0004 51 41.291 51C44.5816 51 47.6879 50.275 50.0035 48.7875C52.3535 47.275 53.791 45.04 53.791 42.25C53.791 41.2554 53.2972 40.3016 52.4181 39.5983C51.539 38.8951 50.3467 38.5 49.1035 38.5Z" fill="#F8F8F8" fill-opacity="0.9"/>
</g>
</svg>
