<svg width="74" height="78" viewBox="0 0 74 78" fill="none" xmlns="http://www.w3.org/2000/svg">
<g id="contact">
<path id="Vector" d="M47.3415 43.5483L43.8066 43.1447C43.391 43.0959 42.9697 43.1419 42.5744 43.2793C42.179 43.4167 41.82 43.6419 41.5242 43.938L38.9635 46.4987C35.0128 44.4894 31.8016 41.2782 29.7923 37.3274L32.3669 34.7528C32.9653 34.1543 33.2576 33.3193 33.1602 32.4704L32.7566 28.9633C32.6777 28.2844 32.3519 27.6582 31.8412 27.204C31.3305 26.7498 30.6706 26.4992 29.9871 26.5H27.5795C26.0069 26.5 24.6987 27.8082 24.7961 29.3808C25.5337 41.2659 35.039 50.7573 46.9101 51.4949C48.4827 51.5923 49.7909 50.2841 49.7909 48.7115V46.3039C49.8048 44.8982 48.7471 43.7153 47.3415 43.5483Z" fill="#F8F8F8" fill-opacity="0.9"/>
</g>
</svg>
