<svg width="26" height="26" viewBox="0 0 26 26" fill="none" xmlns="http://www.w3.org/2000/svg">
<g id="Group">
<path id="Vector" d="M20.2679 8.34877C20.2679 8.96556 20.0228 9.55708 19.5867 9.99321C19.1506 10.4293 18.5591 10.6744 17.9423 10.6744C17.3255 10.6744 16.734 10.4293 16.2978 9.99321C15.8617 9.55708 15.6167 8.96556 15.6167 8.34877C15.6167 7.73199 15.8617 7.14047 16.2978 6.70434C16.734 6.26821 17.3255 6.02319 17.9423 6.02319C18.5591 6.02319 19.1506 6.26821 19.5867 6.70434C20.0228 7.14047 20.2679 7.73199 20.2679 8.34877Z" fill="#F8F8F8" fill-opacity="0.9"/>
<path id="Vector_2" fill-rule="evenodd" clip-rule="evenodd" d="M13.2247 0.5H13.3573C16.0422 0.5 18.1457 0.5 19.7875 0.72093C21.4666 0.946512 22.7922 1.4186 23.8329 2.45814C24.8736 3.49884 25.3445 4.82442 25.5701 6.50465C25.791 8.14535 25.791 10.2488 25.791 12.9337V13.036C25.791 15.2558 25.791 17.0721 25.6701 18.5512C25.5492 20.0395 25.3015 21.2802 24.7457 22.3128C24.5015 22.7674 24.1992 23.1756 23.8329 23.5419C22.7922 24.5826 21.4666 25.0535 19.7864 25.2791C18.1457 25.5 16.0422 25.5 13.3573 25.5H13.2247C10.5399 25.5 8.43636 25.5 6.7945 25.2791C5.11543 25.0535 3.78985 24.5814 2.74916 23.5419C1.82706 22.6198 1.35032 21.4721 1.09799 20.0465C0.847992 18.6477 0.802644 16.907 0.793341 14.7465C0.791016 14.1965 0.791016 13.6151 0.791016 13.0012V12.9337C0.791016 10.2488 0.791016 8.14535 1.01195 6.50349C1.23753 4.82442 1.70962 3.49884 2.74916 2.45814C3.78985 1.41744 5.11543 0.946512 6.79567 0.72093C8.43636 0.5 10.5399 0.5 13.2247 0.5ZM7.02706 2.44884C5.54102 2.64884 4.6445 3.03023 3.98288 3.69186C3.32009 4.35465 2.93985 5.25 2.73985 6.73721C2.53753 8.24884 2.5352 10.2349 2.5352 13V13.9814L3.69915 12.9616C4.20985 12.5149 4.87127 12.2789 5.54942 12.3016C6.22758 12.3243 6.87176 12.6038 7.35148 13.0837L12.3399 18.0721C12.727 18.4591 13.2382 18.6972 13.7835 18.7444C14.3289 18.7916 14.8734 18.645 15.3212 18.3302L15.6678 18.086C16.3139 17.632 17.095 17.4107 17.8833 17.4582C18.6715 17.5057 19.4204 17.8193 20.0073 18.3477L23.298 21.3093C23.6306 20.614 23.8271 19.7 23.9317 18.4105C24.0457 17.0093 24.0468 15.2628 24.0468 13C24.0468 10.2349 24.0445 8.24884 23.8422 6.73721C23.6422 5.25 23.2608 4.35349 22.5992 3.6907C21.9364 3.02907 21.041 2.64884 19.5538 2.44884C18.0422 2.24651 16.0561 2.24419 13.291 2.24419C10.5259 2.24419 8.53869 2.24651 7.02706 2.44884Z" fill="#F8F8F8" fill-opacity="0.9"/>
</g>
</svg>
