<svg width="77" height="78" viewBox="0 0 77 78" fill="none" xmlns="http://www.w3.org/2000/svg">
<g id="members">
<path id="Vector" d="M39.291 27C38.8225 27 38.3585 27.1077 37.9257 27.317C37.4928 27.5262 37.0995 27.833 36.7682 28.2197C36.4369 28.6063 36.174 29.0654 35.9947 29.5706C35.8154 30.0758 35.7232 30.6173 35.7232 31.1642C35.7232 31.711 35.8154 32.2525 35.9947 32.7577C36.174 33.2629 36.4369 33.722 36.7682 34.1087C37.0995 34.4953 37.4928 34.8021 37.9257 35.0113C38.3585 35.2206 38.8225 35.3283 39.291 35.3283C40.2373 35.3283 41.1448 34.8896 41.8139 34.1087C42.483 33.3277 42.8589 32.2686 42.8589 31.1642C42.8589 30.0598 42.483 29.0006 41.8139 28.2197C41.1448 27.4387 40.2373 27 39.291 27ZM47.3267 29.08C46.6163 29.08 45.935 29.4094 45.4327 29.9957C44.9304 30.5819 44.6482 31.3771 44.6482 32.2062C44.6482 33.0354 44.9304 33.8305 45.4327 34.4168C45.935 35.0031 46.6163 35.3325 47.3267 35.3325C48.0371 35.3325 48.7184 35.0031 49.2208 34.4168C49.7231 33.8305 50.0053 33.0354 50.0053 32.2062C50.0053 31.3771 49.7231 30.5819 49.2208 29.9957C48.7184 29.4094 48.0371 29.08 47.3267 29.08ZM31.2553 29.08C30.5449 29.08 29.8636 29.4094 29.3613 29.9957C28.8589 30.5819 28.5767 31.3771 28.5767 32.2062C28.5767 33.0354 28.8589 33.8305 29.3613 34.4168C29.8636 35.0031 30.5449 35.3325 31.2553 35.3325C31.9657 35.3325 32.647 35.0031 33.1493 34.4168C33.6517 33.8305 33.9339 33.0354 33.9339 32.2062C33.9339 31.3771 33.6517 30.5819 33.1493 29.9957C32.647 29.4094 31.9657 29.08 31.2553 29.08ZM33.9339 39.4862C33.9372 38.936 34.1268 38.4096 34.4613 38.0219C34.7958 37.6342 35.2481 37.4166 35.7196 37.4167H42.8624C43.336 37.4167 43.7902 37.6362 44.1251 38.0271C44.46 38.418 44.6482 38.9481 44.6482 39.5008V45.7533C44.648 46.4092 44.5601 47.0611 44.3874 47.6853C43.992 49.0999 43.1775 50.3035 42.0901 51.0802C41.0028 51.8569 39.7138 52.1557 38.4546 51.923C37.1955 51.6903 36.0487 50.9413 35.2201 49.8105C34.3915 48.6797 33.9355 47.2412 33.9339 45.7533V39.4862ZM32.1482 39.5008C32.1482 38.7401 32.3214 38.0294 32.6267 37.4167H28.5767C28.1031 37.4167 27.6489 37.6362 27.314 38.0271C26.9792 38.418 26.791 38.9481 26.791 39.5008V44.7112C26.7908 45.5643 26.97 46.4044 27.3129 47.1577C27.6559 47.911 28.152 48.5546 28.7579 49.0318C29.3637 49.509 30.0607 49.8053 30.7875 49.8947C31.5144 49.9841 32.249 49.8638 32.9267 49.5444C32.4128 48.3701 32.1459 47.0698 32.1482 45.7512V39.5008ZM46.4339 39.5008V45.7533C46.4339 47.1184 46.1535 48.4065 45.6553 49.5444C46.333 49.8638 47.0676 49.9841 47.7945 49.8947C48.5214 49.8053 49.2183 49.509 49.8242 49.0318C50.43 48.5546 50.9262 47.911 51.2691 47.1577C51.612 46.4044 51.7913 45.5643 51.791 44.7112V39.5008C51.791 38.9481 51.6029 38.418 51.268 38.0271C50.9331 37.6362 50.4789 37.4167 50.0053 37.4167H45.9553C46.2589 38.0294 46.4339 38.7401 46.4339 39.5008Z" fill="#F8F8F8" fill-opacity="0.9"/>
</g>
</svg>
