<svg width="86" height="84" viewBox="0 0 86 84" fill="none" xmlns="http://www.w3.org/2000/svg">
<g id="projects">
<path id="Vector" fill-rule="evenodd" clip-rule="evenodd" d="M46.416 52.6557L33.916 48.7497V36.2503L46.416 32.3443V52.6557ZM32.0723 50.7121C31.6928 50.5933 31.3686 50.3931 31.1406 50.1364C30.9126 49.8798 30.791 49.5783 30.791 49.27V35.73C30.791 35.4217 30.9126 35.1202 31.1406 34.8636C31.3686 34.6069 31.6928 34.4067 32.0723 34.2879L45.2139 30.1803C45.6889 30.0319 46.2054 29.9737 46.7175 30.0109C47.2297 30.0482 47.7216 30.1797 48.1497 30.3938C48.5778 30.6078 48.9288 30.8979 49.1715 31.2382C49.4142 31.5784 49.5412 31.9584 49.541 32.3443V33.1255H52.1452C54.1577 33.1255 55.791 34.3489 55.791 35.8597V49.1403C55.791 49.8654 55.4069 50.5609 54.7232 51.0737C54.0394 51.5864 53.1121 51.8745 52.1452 51.8745H49.541V52.6557C49.5412 53.0416 49.4142 53.4216 49.1715 53.7618C48.9288 54.1021 48.5778 54.3922 48.1497 54.6062C47.7216 54.8203 47.2297 54.9518 46.7175 54.9891C46.2054 55.0263 45.6889 54.9681 45.2139 54.8197L32.0723 50.7121ZM49.541 49.5309H52.1452C52.2833 49.5309 52.4158 49.4897 52.5135 49.4165C52.6111 49.3432 52.666 49.2439 52.666 49.1403V35.8597C52.666 35.7561 52.6111 35.6568 52.5135 35.5835C52.4158 35.5103 52.2833 35.4691 52.1452 35.4691H49.541V49.5309Z" fill="#F8F8F8" fill-opacity="0.9"/>
</g>
</svg>
